{
    "asset" : {
        "generator" : "Khronos glTF Blender I/O v3.2.43",
        "version" : "2.0"
    },
    "scene" : 0,
    "scenes" : [
        {
            "name" : "Scene",
            "nodes" : [
                0
            ]
        }
    ],
    "nodes" : [
        {
            "mesh" : 0,
            "name" : "TQ_ARD-node",
            "rotation" : [
                -0.5000001192092896,
                -0.49999988079071045,
                0.4999999403953552,
                0.5000001192092896
            ],
            "translation" : [
                0.0002154335379600525,
                0.00010706111788749695,
                -0.0004945099353790283
            ]
        }
    ],
    "materials" : [
        {
            "doubleSided" : true,
            "name" : "TQ_ARD_front",
            "pbrMetallicRoughness" : {
                "baseColorTexture" : {
                    "index" : 0
                },
                "metallicFactor" : 0,
                "roughnessFactor" : 0.5
            }
        },
        {
            "doubleSided" : true,
            "name" : "TQ_ARD_back",
            "pbrMetallicRoughness" : {
                "baseColorFactor" : [
                    0.38272276520729065,
                    0.21876876056194305,
                    0.1310112029314041,
                    1
                ],
                "metallicFactor" : 0,
                "roughnessFactor" : 0.5
            }
        },
        {
            "doubleSided" : true,
            "name" : "TQ_ARD_edge",
            "pbrMetallicRoughness" : {
                "baseColorTexture" : {
                    "index" : 1
                },
                "metallicFactor" : 0,
                "roughnessFactor" : 0.5
            }
        }
    ],
    "meshes" : [
        {
            "name" : "TQ_ARD-geom",
            "primitives" : [
                {
                    "attributes" : {
                        "POSITION" : 0,
                        "NORMAL" : 1,
                        "TEXCOORD_0" : 2
                    },
                    "indices" : 3,
                    "material" : 0
                },
                {
                    "attributes" : {
                        "POSITION" : 4,
                        "NORMAL" : 5,
                        "TEXCOORD_0" : 6
                    },
                    "indices" : 7,
                    "material" : 1
                },
                {
                    "attributes" : {
                        "POSITION" : 8,
                        "NORMAL" : 9,
                        "TEXCOORD_0" : 10
                    },
                    "indices" : 11,
                    "material" : 2
                }
            ]
        }
    ],
    "textures" : [
        {
            "sampler" : 0,
            "source" : 0
        },
        {
            "sampler" : 0,
            "source" : 1
        }
    ],
    "images" : [
        {
            "bufferView" : 4,
            "mimeType" : "image/png",
            "name" : "zazaza"
        },
        {
            "bufferView" : 13,
            "mimeType" : "image/png",
            "name" : "TQ_ARD-I1"
        }
    ],
    "accessors" : [
        {
            "bufferView" : 0,
            "componentType" : 5126,
            "count" : 848,
            "max" : [
                0.11079413443803787,
                0.1067999079823494,
                0.10880008339881897
            ],
            "min" : [
                -0.110793337225914,
                -0.11478754878044128,
                -0.11278746277093887
            ],
            "type" : "VEC3"
        },
        {
            "bufferView" : 1,
            "componentType" : 5126,
            "count" : 848,
            "type" : "VEC3"
        },
        {
            "bufferView" : 2,
            "componentType" : 5126,
            "count" : 848,
            "type" : "VEC2"
        },
        {
            "bufferView" : 3,
            "componentType" : 5123,
            "count" : 1884,
            "type" : "SCALAR"
        },
        {
            "bufferView" : 5,
            "componentType" : 5126,
            "count" : 663,
            "max" : [
                0.10976789146661758,
                0.10600627213716507,
                0.10800638794898987
            ],
            "min" : [
                -0.1097671240568161,
                -0.1138388141989708,
                -0.1119936928153038
            ],
            "type" : "VEC3"
        },
        {
            "bufferView" : 6,
            "componentType" : 5126,
            "count" : 663,
            "type" : "VEC3"
        },
        {
            "bufferView" : 7,
            "componentType" : 5126,
            "count" : 663,
            "type" : "VEC2"
        },
        {
            "bufferView" : 8,
            "componentType" : 5123,
            "count" : 1884,
            "type" : "SCALAR"
        },
        {
            "bufferView" : 9,
            "componentType" : 5126,
            "count" : 830,
            "max" : [
                0.11079413443803787,
                0.1067999079823494,
                0.10825549066066742
            ],
            "min" : [
                -0.110793337225914,
                -0.11478754878044128,
                -0.11228355020284653
            ],
            "type" : "VEC3"
        },
        {
            "bufferView" : 10,
            "componentType" : 5126,
            "count" : 830,
            "type" : "VEC3"
        },
        {
            "bufferView" : 11,
            "componentType" : 5126,
            "count" : 830,
            "type" : "VEC2"
        },
        {
            "bufferView" : 12,
            "componentType" : 5123,
            "count" : 1488,
            "type" : "SCALAR"
        }
    ],
    "bufferViews" : [
        {
            "buffer" : 0,
            "byteLength" : 10176,
            "byteOffset" : 0
        },
        {
            "buffer" : 0,
            "byteLength" : 10176,
            "byteOffset" : 10176
        },
        {
            "buffer" : 0,
            "byteLength" : 6784,
            "byteOffset" : 20352
        },
        {
            "buffer" : 0,
            "byteLength" : 3768,
            "byteOffset" : 27136
        },
        {
            "buffer" : 0,
            "byteLength" : 754768,
            "byteOffset" : 30904
        },
        {
            "buffer" : 0,
            "byteLength" : 7956,
            "byteOffset" : 785672
        },
        {
            "buffer" : 0,
            "byteLength" : 7956,
            "byteOffset" : 793628
        },
        {
            "buffer" : 0,
            "byteLength" : 5304,
            "byteOffset" : 801584
        },
        {
            "buffer" : 0,
            "byteLength" : 3768,
            "byteOffset" : 806888
        },
        {
            "buffer" : 0,
            "byteLength" : 9960,
            "byteOffset" : 810656
        },
        {
            "buffer" : 0,
            "byteLength" : 9960,
            "byteOffset" : 820616
        },
        {
            "buffer" : 0,
            "byteLength" : 6640,
            "byteOffset" : 830576
        },
        {
            "buffer" : 0,
            "byteLength" : 2976,
            "byteOffset" : 837216
        },
        {
            "buffer" : 0,
            "byteLength" : 4676,
            "byteOffset" : 840192
        }
    ],
    "samplers" : [
        {
            "magFilter" : 9729,
            "minFilter" : 9987
        }
    ],
    "buffers" : [
        {
            "byteLength" : 844868,
            "uri" : "data:application/octet-stream;base64,"
        }
    ]
}
